<svg width="14" height="14" viewBox="0 0 14 14" fill="none" xmlns="http://www.w3.org/2000/svg">
<path d="M-0.000122376 7C-0.000122316 8.38447 0.410421 9.73784 1.17959 10.889C1.94876 12.0401 3.04201 12.9373 4.32109 13.4672C5.60018 13.997 7.00764 14.1356 8.36551 13.8655C9.72338 13.5954 10.9707 12.9287 11.9496 11.9497C12.9286 10.9708 13.5953 9.7235 13.8654 8.36563C14.1355 7.00776 13.9968 5.6003 13.467 4.32121C12.9372 3.04213 12.04 1.94888 10.8889 1.17971C9.73772 0.410542 8.38435 -1.32017e-06 6.99988 -1.25965e-06C5.14445 0.00355698 3.36604 0.742198 2.05406 2.05418C0.742076 3.36617 0.00343541 5.14458 -0.000122376 7ZM6.55565 4.17981L9.24795 6.60288C9.30304 6.65333 9.34703 6.71469 9.37713 6.78305C9.40722 6.85142 9.42277 6.9253 9.42277 7C9.42277 7.0747 9.40722 7.14858 9.37713 7.21694C9.34703 7.28531 9.30304 7.34667 9.24795 7.39711L6.55565 9.82019C6.44976 9.91297 6.31174 9.96059 6.17116 9.95285C6.03058 9.9451 5.89863 9.88261 5.80358 9.77875C5.70852 9.67489 5.65792 9.53794 5.66262 9.39723C5.66732 9.25651 5.72695 9.12324 5.82872 9.02596L8.0768 7L5.82872 4.97404C5.7748 4.92679 5.73086 4.86925 5.69947 4.80479C5.66808 4.74034 5.64988 4.67026 5.64594 4.59867C5.64199 4.52709 5.65238 4.45544 5.6765 4.38792C5.70062 4.32041 5.73797 4.25839 5.78638 4.2055C5.83478 4.15262 5.89326 4.10993 5.95838 4.07995C6.0235 4.04996 6.09395 4.03328 6.16561 4.03089C6.23726 4.02849 6.30867 4.04044 6.37565 4.06601C6.44262 4.09158 6.50382 4.13027 6.55565 4.17981Z" fill="#525255"/>
</svg>
