<svg width="171" height="50" viewBox="0 0 171 50" fill="none" xmlns="http://www.w3.org/2000/svg">
<path d="M52.4062 36.1474C51.6462 36.1474 51.0662 35.9374 50.6662 35.5174C50.2662 35.0974 50.0662 34.5074 50.0662 33.7474V17.0974C50.0662 16.3174 50.2662 15.7274 50.6662 15.3274C51.0862 14.9274 51.6762 14.7274 52.4362 14.7274H59.7262C62.0862 14.7274 63.9062 15.3274 65.1862 16.5274C66.4662 17.7074 67.1062 19.3574 67.1062 21.4774C67.1062 23.5974 66.4662 25.2574 65.1862 26.4574C63.9062 27.6574 62.0862 28.2574 59.7262 28.2574H54.7162V33.7474C54.7162 34.5074 54.5162 35.0974 54.1162 35.5174C53.7362 35.9374 53.1662 36.1474 52.4062 36.1474ZM54.7162 24.6574H58.9462C60.1462 24.6574 61.0562 24.3874 61.6762 23.8474C62.3162 23.3074 62.6362 22.5174 62.6362 21.4774C62.6362 20.4374 62.3162 19.6574 61.6762 19.1374C61.0562 18.6174 60.1462 18.3574 58.9462 18.3574H54.7162V24.6574ZM71.6451 36.1474C70.8851 36.1474 70.3051 35.9474 69.9051 35.5474C69.5051 35.1474 69.3051 34.5774 69.3051 33.8374V23.1874C69.3051 22.4474 69.4951 21.8874 69.8751 21.5074C70.2751 21.1074 70.8251 20.9074 71.5251 20.9074C72.2451 20.9074 72.7951 21.1074 73.1751 21.5074C73.5551 21.8874 73.7451 22.4474 73.7451 23.1874V24.7474H73.4451C73.6851 23.5474 74.2151 22.6174 75.0351 21.9574C75.8551 21.2974 76.9151 20.9274 78.2151 20.8474C78.7151 20.8074 79.0951 20.9374 79.3551 21.2374C79.6351 21.5174 79.7851 21.9874 79.8051 22.6474C79.8451 23.2674 79.7151 23.7574 79.4151 24.1174C79.1351 24.4774 78.6551 24.6974 77.9751 24.7774L77.2851 24.8374C76.1451 24.9374 75.2951 25.2674 74.7351 25.8274C74.1951 26.3874 73.9251 27.1974 73.9251 28.2574V33.8374C73.9251 34.5774 73.7251 35.1474 73.3251 35.5474C72.9451 35.9474 72.3851 36.1474 71.6451 36.1474ZM88.4847 36.2074C86.9047 36.2074 85.5247 35.8974 84.3447 35.2774C83.1847 34.6574 82.2847 33.7674 81.6447 32.6074C81.0047 31.4474 80.6847 30.0774 80.6847 28.4974C80.6847 27.3174 80.8647 26.2574 81.2247 25.3174C81.5847 24.3774 82.1047 23.5774 82.7847 22.9174C83.4847 22.2374 84.3147 21.7274 85.2747 21.3874C86.2347 21.0274 87.3047 20.8474 88.4847 20.8474C90.0647 20.8474 91.4347 21.1574 92.5947 21.7774C93.7747 22.3974 94.6847 23.2774 95.3247 24.4174C95.9847 25.5574 96.3147 26.9174 96.3147 28.4974C96.3147 29.6974 96.1247 30.7674 95.7447 31.7074C95.3847 32.6474 94.8647 33.4574 94.1847 34.1374C93.5047 34.8174 92.6747 35.3374 91.6947 35.6974C90.7347 36.0374 89.6647 36.2074 88.4847 36.2074ZM88.4847 32.8174C89.1447 32.8174 89.7147 32.6574 90.1947 32.3374C90.6747 32.0174 91.0547 31.5474 91.3347 30.9274C91.6147 30.2874 91.7547 29.4774 91.7547 28.4974C91.7547 27.0374 91.4547 25.9674 90.8547 25.2874C90.2547 24.5874 89.4647 24.2374 88.4847 24.2374C87.8447 24.2374 87.2747 24.3874 86.7747 24.6874C86.2947 24.9874 85.9147 25.4574 85.6347 26.0974C85.3747 26.7174 85.2447 27.5174 85.2447 28.4974C85.2447 29.9574 85.5447 31.0474 86.1447 31.7674C86.7447 32.4674 87.5247 32.8174 88.4847 32.8174ZM101.411 36.1474C100.671 36.1474 100.101 35.9474 99.7007 35.5474C99.3207 35.1474 99.1307 34.5774 99.1307 33.8374V23.1874C99.1307 22.4474 99.3207 21.8874 99.7007 21.5074C100.101 21.1074 100.651 20.9074 101.351 20.9074C102.071 20.9074 102.621 21.1074 103.001 21.5074C103.381 21.8874 103.571 22.4474 103.571 23.1874V25.1074L103.241 23.9074C103.641 22.9874 104.261 22.2474 105.101 21.6874C105.941 21.1274 106.931 20.8474 108.071 20.8474C109.211 20.8474 110.161 21.1174 110.921 21.6574C111.681 22.1974 112.221 23.0274 112.541 24.1474H112.121C112.561 23.1274 113.231 22.3274 114.131 21.7474C115.051 21.1474 116.101 20.8474 117.281 20.8474C118.421 20.8474 119.351 21.0774 120.071 21.5374C120.811 21.9774 121.361 22.6574 121.721 23.5774C122.081 24.4774 122.261 25.6274 122.261 27.0274V33.8374C122.261 34.5774 122.061 35.1474 121.661 35.5474C121.281 35.9474 120.731 36.1474 120.011 36.1474C119.271 36.1474 118.701 35.9474 118.301 35.5474C117.921 35.1474 117.731 34.5774 117.731 33.8374V27.1774C117.731 26.1974 117.571 25.4874 117.251 25.0474C116.951 24.5874 116.431 24.3574 115.691 24.3574C114.831 24.3574 114.161 24.6574 113.681 25.2574C113.201 25.8574 112.961 26.7074 112.961 27.8074V33.8374C112.961 34.5774 112.761 35.1474 112.361 35.5474C111.981 35.9474 111.431 36.1474 110.711 36.1474C109.991 36.1474 109.431 35.9474 109.031 35.5474C108.631 35.1474 108.431 34.5774 108.431 33.8374V27.1774C108.431 26.1974 108.271 25.4874 107.951 25.0474C107.651 24.5874 107.131 24.3574 106.391 24.3574C105.531 24.3574 104.861 24.6574 104.381 25.2574C103.901 25.8574 103.661 26.7074 103.661 27.8074V33.8374C103.661 35.3774 102.911 36.1474 101.411 36.1474ZM132.811 36.2074C131.231 36.2074 129.851 35.8974 128.671 35.2774C127.511 34.6574 126.611 33.7674 125.971 32.6074C125.331 31.4474 125.011 30.0774 125.011 28.4974C125.011 27.3174 125.191 26.2574 125.551 25.3174C125.911 24.3774 126.431 23.5774 127.111 22.9174C127.811 22.2374 128.641 21.7274 129.601 21.3874C130.561 21.0274 131.631 20.8474 132.811 20.8474C134.391 20.8474 135.761 21.1574 136.921 21.7774C138.101 22.3974 139.011 23.2774 139.651 24.4174C140.311 25.5574 140.641 26.9174 140.641 28.4974C140.641 29.6974 140.451 30.7674 140.071 31.7074C139.711 32.6474 139.191 33.4574 138.511 34.1374C137.831 34.8174 137.001 35.3374 136.021 35.6974C135.061 36.0374 133.991 36.2074 132.811 36.2074ZM132.811 32.8174C133.471 32.8174 134.041 32.6574 134.521 32.3374C135.001 32.0174 135.381 31.5474 135.661 30.9274C135.941 30.2874 136.081 29.4774 136.081 28.4974C136.081 27.0374 135.781 25.9674 135.181 25.2874C134.581 24.5874 133.791 24.2374 132.811 24.2374C132.171 24.2374 131.601 24.3874 131.101 24.6874C130.621 24.9874 130.241 25.4574 129.961 26.0974C129.701 26.7174 129.571 27.5174 129.571 28.4974C129.571 29.9574 129.871 31.0474 130.471 31.7674C131.071 32.4674 131.851 32.8174 132.811 32.8174ZM150.48 36.2074C149.1 36.2074 147.94 35.9774 147 35.5174C146.08 35.0574 145.39 34.3874 144.93 33.5074C144.49 32.6274 144.27 31.5174 144.27 30.1774V24.5374H143.01C142.45 24.5374 142.01 24.3874 141.69 24.0874C141.39 23.7874 141.24 23.3774 141.24 22.8574C141.24 22.2974 141.39 21.8774 141.69 21.5974C142.01 21.2974 142.45 21.1474 143.01 21.1474H144.27V18.8674C144.27 18.1074 144.47 17.5374 144.87 17.1574C145.27 16.7574 145.83 16.5574 146.55 16.5574C147.29 16.5574 147.85 16.7574 148.23 17.1574C148.61 17.5374 148.8 18.1074 148.8 18.8674V21.1474H151.65C152.21 21.1474 152.64 21.2974 152.94 21.5974C153.24 21.8774 153.39 22.2974 153.39 22.8574C153.39 23.3774 153.24 23.7874 152.94 24.0874C152.64 24.3874 152.21 24.5374 151.65 24.5374H148.8V29.9974C148.8 30.8374 148.99 31.4674 149.37 31.8874C149.77 32.3074 150.4 32.5174 151.26 32.5174C151.56 32.5174 151.84 32.4874 152.1 32.4274C152.36 32.3674 152.6 32.3274 152.82 32.3074C153.1 32.2874 153.33 32.3774 153.51 32.5774C153.69 32.7574 153.78 33.1674 153.78 33.8074C153.78 34.2874 153.7 34.7074 153.54 35.0674C153.38 35.4274 153.1 35.6874 152.7 35.8474C152.44 35.9474 152.08 36.0274 151.62 36.0874C151.18 36.1674 150.8 36.2074 150.48 36.2074ZM162.883 36.2074C161.143 36.2074 159.643 35.8974 158.383 35.2774C157.143 34.6374 156.183 33.7474 155.503 32.6074C154.843 31.4474 154.513 30.0874 154.513 28.5274C154.513 27.0074 154.833 25.6774 155.473 24.5374C156.113 23.3774 157.003 22.4774 158.143 21.8374C159.303 21.1774 160.613 20.8474 162.073 20.8474C163.133 20.8474 164.093 21.0274 164.953 21.3874C165.813 21.7274 166.553 22.2274 167.173 22.8874C167.793 23.5274 168.263 24.3174 168.583 25.2574C168.903 26.1774 169.063 27.2074 169.063 28.3474C169.063 28.7274 168.943 29.0174 168.703 29.2174C168.463 29.3974 168.113 29.4874 167.653 29.4874H158.233V27.1474H165.793L165.313 27.5674C165.313 26.7474 165.193 26.0674 164.953 25.5274C164.713 24.9674 164.363 24.5474 163.903 24.2674C163.463 23.9874 162.913 23.8474 162.253 23.8474C161.513 23.8474 160.883 24.0174 160.363 24.3574C159.843 24.6974 159.443 25.1874 159.163 25.8274C158.883 26.4674 158.743 27.2374 158.743 28.1374V28.3774C158.743 29.8974 159.093 31.0174 159.793 31.7374C160.513 32.4574 161.573 32.8174 162.973 32.8174C163.453 32.8174 164.003 32.7574 164.623 32.6374C165.243 32.5174 165.823 32.3274 166.363 32.0674C166.823 31.8474 167.233 31.7774 167.593 31.8574C167.953 31.9174 168.233 32.0774 168.433 32.3374C168.633 32.5974 168.743 32.8974 168.763 33.2374C168.803 33.5774 168.733 33.9174 168.553 34.2574C168.373 34.5774 168.073 34.8474 167.653 35.0674C166.973 35.4474 166.203 35.7274 165.343 35.9074C164.503 36.1074 163.683 36.2074 162.883 36.2074Z" fill="#2C2D36"/>
<path d="M20.1548 10.5101C16.9314 10.5101 13.7803 11.4659 11.1001 13.2568C8.41996 15.0476 6.33101 17.593 5.09746 20.5711C3.86391 23.5491 3.54116 26.8261 4.17002 29.9876C4.79888 33.1491 6.3511 36.0531 8.63041 38.3324C10.9097 40.6117 13.8137 42.1639 16.9752 42.7928C20.1367 43.4217 23.4137 43.0989 26.3917 41.8653C29.3698 40.6318 31.9152 38.5429 33.706 35.8627C35.4969 33.1825 36.4527 30.0314 36.4527 26.808L20.1548 26.808L20.1548 10.5101Z" fill="#FFDC60"/>
<path d="M39.9489 23.3296C39.9489 18.9774 38.22 14.8035 35.1426 11.726C32.0651 8.64852 27.8911 6.91962 23.539 6.91962L23.539 23.3296L39.9489 23.3296Z" fill="#5956E8"/>
</svg>
